{
    "asset" : {
        "generator" : "Khronos glTF Blender I/O v3.3.32",
        "version" : "2.0"
    },
    "scene" : 0,
    "scenes" : [
        {
            "name" : "Scene",
            "nodes" : [
                0
            ]
        }
    ],
    "nodes" : [
        {
            "mesh" : 0,
            "name" : "Plane",
            "scale" : [
                17.43242073059082,
                17.43242073059082,
                17.43242073059082
            ]
        }
    ],
    "meshes" : [
        {
            "name" : "Plane",
            "primitives" : [
                {
                    "attributes" : {
                        "POSITION" : 0,
                        "NORMAL" : 1
                    },
                    "indices" : 2
                }
            ]
        }
    ],
    "accessors" : [
        {
            "bufferView" : 0,
            "componentType" : 5126,
            "count" : 31329,
            "max" : [
                1.0000001192092896,
                0.049933161586523056,
                1.0000001192092896
            ],
            "min" : [
                -1.0000001192092896,
                -0.0625,
                -1.0000001192092896
            ],
            "type" : "VEC3"
        },
        {
            "bufferView" : 1,
            "componentType" : 5126,
            "count" : 31329,
            "type" : "VEC3"
        },
        {
            "bufferView" : 2,
            "componentType" : 5123,
            "count" : 185856,
            "type" : "SCALAR"
        }
    ],
    "bufferViews" : [
        {
            "buffer" : 0,
            "byteLength" : 375948,
            "byteOffset" : 0,
            "target" : 34962
        },
        {
            "buffer" : 0,
            "byteLength" : 375948,
            "byteOffset" : 375948,
            "target" : 34962
        },
        {
            "buffer" : 0,
            "byteLength" : 371712,
            "byteOffset" : 751896,
            "target" : 34963
        }
    ],
    "buffers" : [
        {
            "byteLength" : 1123608,
            "uri" : "data:application/octet-stream;base64,"
        }
    ]
}
